<svg xmlns="http://www.w3.org/2000/svg" viewBox="0 0 512 512" id="cooking-tools">
  <defs>
    <linearGradient id="a" x1="243.5" x2="243.5" y1="413.57" y2="474.28" gradientUnits="userSpaceOnUse">
      <stop offset="0" stop-color="#cacfdd"></stop>
      <stop offset="1" stop-color="#eef0f1"></stop>
    </linearGradient>
  </defs>
  <g style="isolation:isolate">
    <g>
      <rect width="276.7" height="27.97" x="105.14" y="426.56" fill="#a9afc4"></rect>
      <rect width="276.7" height="13.99" x="105.14" y="426.56" fill="url(#a)" style="mix-blend-mode:multiply"></rect>
      <path fill="#e1830e" d="M311.92,168.76l142.62-62a12.23,12.23,0,0,1,16.09,6.34h0a12.23,12.23,0,0,1-6.34,16.1L297.62,201.66l-9.76-22.44Z"></path>
      <path fill="#5e6175" d="M296.06,205.6l-12.15-27.94L453.34,104a15.23,15.23,0,1,1,12.15,27.94Zm-4.25-24.83,7.36,16.94L463.1,126.44a9.24,9.24,0,0,0-7.37-16.94Z"></path>
      <path fill="#f5f5f5" d="M175.34,269.15,126.7,248.09a59,59,0,0,1-31.42-32.43l-.8-2a59,59,0,0,1,.72-45.14l9.5-21.93a10.5,10.5,0,0,1,13.81-5.47h0A10.51,10.51,0,0,1,124,154.9l-4.08,9.42a9.19,9.19,0,0,0,4.79,12.09h0a9.2,9.2,0,0,0,12.09-4.79l16.95-39.14a12.78,12.78,0,0,1,16.82-6.66h0a12.79,12.79,0,0,1,6.65,16.82l-19.45,44.94a24.56,24.56,0,0,0,12.78,32.31l31.58,13.67Z"></path>
      <path fill="#5e6175" d="M176.32,272.84l-50.82-22a61.57,61.57,0,0,1-33-34.08l-.81-2a61.57,61.57,0,0,1,.76-47.43l9.49-21.94a13.5,13.5,0,1,1,24.78,10.73l-4.08,9.42A6.19,6.19,0,1,0,134,170.43l17-39.14a15.79,15.79,0,0,1,29,12.54l-19.46,44.94a21.57,21.57,0,0,0,11.22,28.36l35.08,15.19Zm-62-129.61a7.5,7.5,0,0,0-6.89,4.52L98,169.68a55.63,55.63,0,0,0-.68,42.84l.8,2a55.63,55.63,0,0,0,29.82,30.77l46.47,20.13,23.06-30.66-28.09-12.16A27.58,27.58,0,0,1,155,186.39l19.46-44.94a9.79,9.79,0,1,0-18-7.78l-16.95,39.15a12.21,12.21,0,0,1-16,6.34,12.19,12.19,0,0,1-6.34-16l4.08-9.42a7.49,7.49,0,0,0-3.91-9.86A7.4,7.4,0,0,0,114.34,143.23Z"></path>
      <path fill="#e1830e" d="M238.7,119.53l-.49,0a32.71,32.71,0,0,0-31.53,33.86l0,.84.48,0a32.72,32.72,0,0,0,31.54-33.86Z"></path>
      <circle cx="127.83" cy="101.05" r="10.74" fill="#a9afc4"></circle>
      <path fill="#5e6175" d="M127.83 114.8A13.75 13.75 0 11140.61 96h0a13.78 13.78 0 01-12.78 18.81zm0-21.49A7.74 7.74 0 10135 98.2 7.73 7.73 0 00127.82 93.31zM384.85 457.53H102.14v-34H384.85zm-276.71-6H378.85v-22H108.14z"></path>
      <path fill="#e1830e" d="M220.84,318.29l6.55-7.73V332h0a59.93,59.93,0,0,0,14.19-38.72V288l5.2,6.13a46.44,46.44,0,0,1,11,30h0L269,311h0a45.39,45.39,0,0,1,10.76,29.35V347a34.82,34.82,0,0,1-34.83,34.83h-.67a34.15,34.15,0,0,1-34.16-34.16h0A45.38,45.38,0,0,1,220.84,318.29Z"></path>
      <path fill="#f5f5f5" d="M253.67,362.94l-8.37-13.48-8.38,13.48a15.46,15.46,0,0,0-2.33,8.15h0a10.7,10.7,0,0,0,10.71,10.7h0a10.7,10.7,0,0,0,10.7-10.7h0A15.46,15.46,0,0,0,253.67,362.94Z"></path>
      <rect width="19.08" height="32.33" x="145.62" y="349.46" fill="#dee1ec"></rect>
      <rect width="19.08" height="32.33" x="322.29" y="349.46" fill="#dee1ec"></rect>
      <rect width="195.74" height="6" x="145.62" y="346.46" fill="#5e6175"></rect>
      <path fill="#5e6175" d="M167.7 384.79H142.62V346.46H167.7zm-19.08-6H161.7V352.46H148.62zM344.37 384.79H319.29V346.46h25.08zm-19.08-6h13.08V352.46H325.29zM100.16 260.83l211.76-92.07h0a64.89 64.89 0 01-33.63 85.37l-92.76 40.33a64.88 64.88 0 01-85.37-33.63z"></path>
      <path fill="#5e6175" d="M159.67,302.87A68,68,0,0,1,97.41,262l-1.2-2.75,217.26-94.46,1.2,2.75a68,68,0,0,1-35.19,89.32l-92.76,40.33A67.8,67.8,0,0,1,159.67,302.87Zm-55.5-40.52a61.89,61.89,0,0,0,80.16,29.36l92.76-40.33a62,62,0,0,0,33.21-78.64Z"></path>
      <rect width="326.33" height="44.77" x="80.33" y="381.79" fill="#f5f5f5"></rect>
      <path fill="#5e6175" d="M409.66,429.56H77.33V378.79H409.66Zm-326.33-6H403.66V384.79H83.33Z"></path>
      <rect width="440" height="6" x="36" y="451.53" fill="#5e6175"></rect>
      <path fill="#5e6175" d="M133.26,223.23c-8.51-11.76-10.27-25.93-4.85-38.87L141,154.28l5.54,2.32-12.6,30.08c-4.66,11.13-3.18,22.86,4.18,33Z"></path>
      <path fill="#a9afc4" d="M429.64,409.42h-6v-6h6Zm0-16h-6v-6h6Zm-6.81-15.06a19.72,19.72,0,0,0-2.11-4.74l5.11-3.14a25.77,25.77,0,0,1,2.75,6.19Zm-8.1-11a20,20,0,0,0-4.66-2.3l1.92-5.68a26.12,26.12,0,0,1,6.07,3Zm-13.57-3.34h-6v-6h6Zm-16,0h-6v-6h6Z"></path>
      <rect width="6" height="20" x="61.15" y="354.25" fill="#5e6175" transform="rotate(-45 64.144 364.24)"></rect>
      <rect width="20" height="6" x="40.74" y="384.82" fill="#5e6175"></rect>
      <rect width="6" height="20" x="83.51" y="340.3" fill="#5e6175"></rect>
    </g>
  </g>
</svg>
