<svg xmlns="http://www.w3.org/2000/svg" xmlns:xlink="http://www.w3.org/1999/xlink" viewBox="0 0 512 512" id="work-life-balance">
  <defs>
    <linearGradient id="a" x1="216.13" x2="309.23" y1="282.42" y2="282.42" gradientUnits="userSpaceOnUse">
      <stop offset="0" stop-color="#cacfdd"></stop>
      <stop offset="1" stop-color="#eef0f1"></stop>
    </linearGradient>
    <linearGradient xlink:href="#a" id="b" x1="223.18" x2="302.2" y1="261.74" y2="261.74"></linearGradient>
  </defs>
  <g style="isolation:isolate">
    <g>
      <rect width="19.07" height="6" x="326.39" y="111.08" fill="#5e6175" transform="rotate(-45 335.926 114.085)"></rect>
      <rect width="6" height="19.07" x="310.46" y="91.76" fill="#5e6175"></rect>
      <rect width="19.07" height="6" x="339.69" y="132.39" fill="#5e6175"></rect>
      <path fill="#a9afc4" d="M352.19,410.6h-6v-6h6Zm0-16h-6v-6h6Zm0-16h-6v-6h6Zm0-16h-6c0-3.16-.11-4.61.42-6.71l5.82,1.48C352.1,358.64,352.19,359.42,352.19,362.6Zm23.27-5.41-5.55-2.28,2.28-5.55,5.55,2.28ZM357,352.1l-2.33-5.53a13.66,13.66,0,0,1,7.52-.92l-.95,5.93A7.72,7.72,0,0,0,357,352.1Z"></path>
      <path fill="#5e6175" d="M170.74 202.36a11.4 11.4 0 1111.37-10.94A11.42 11.42 0 01170.74 202.36zm0-16.8a5.4 5.4 0 105.4 5.62A5.38 5.38 0 00170.72 185.56zM111.41 144.7a8.83 8.83 0 1114.81 6.84A8.82 8.82 0 01111.41 144.7zm8.81-2.48a2.83 2.83 0 101.93 4.92A2.82 2.82 0 00120.22 142.22z"></path>
      <path fill="#f5f5f5" d="M416.72,295.55v32.61H365L326,312.9V420.24H197.1V312.9l-40.89,15.26H104.47V295.55h38.67l68.14-35.85a44.52,44.52,0,0,1,22.47-6.11h58a42.34,42.34,0,0,1,22.51,6.47L377,295.55Z"></path>
      <path fill="#5e6175" d="M234.09,257l-2.5-5.45a10.29,10.29,0,0,1,4.24-1h53.69a9.19,9.19,0,0,1,3.32.62l-2.19,5.58c-.74-.29,2.46-.2-54.82-.2A4.36,4.36,0,0,0,234.09,257Z"></path>
      <path fill="#f5f5f5" d="M262.7,273.61l-20.31,16.91-14.62-34.21c8-3.16,6-2.71,11.9-2.71Z"></path>
      <polygon fill="url(#a)" points="309.23 257.36 287.36 308.54 262.7 288.01 238.06 308.54 216.13 257.25 227.77 256.31 242.39 290.52 262.7 273.61 283.02 290.52 297.49 256.66 309.23 257.36" style="mix-blend-mode:multiply"></polygon>
      <path fill="#f5f5f5" d="M297.49,256.66,283,290.52,262.7,273.61l23-20C292.14,253.6,290,253.17,297.49,256.66Z"></path>
      <path fill="#5e6175" d="M241.22,295.4l-17.43-40.75c11.84-4.65,9-4.05,17-4.05l26.54,23.06ZM231.74,258l11.83,27.67,14.5-12.08-19.52-17C234.71,256.6,235.89,256.34,231.74,258Z"></path>
      <path fill="#5e6175" d="M284.19,295.4l-26.12-21.74,26.55-23.06c5.08,0,6.25-.17,8.22.61l8.56,3.95Zm-16.86-21.84,14.51,12.08,11.75-27.48c-4-1.84-2.7-1.56-6.73-1.56Z"></path>
      <path fill="#5e6175" d="M269.94,304.91H255.47L244.28,285l18.42-15.33L281.12,285Zm-11-6h7.45l7-12.45-10.74-8.95L252,286.46Z"></path>
      <path fill="#5e6175" d="M262.7,273.61l-14.58,12.14,9.1,16.16h11l9.1-16.16Z"></path>
      <path fill="#5e6175" d="M262.7,421l-20.33-24.14,12.2-97.93h16.26L283,396.84Zm-14-26,14,16.68L276.75,395l-11.22-90.07h-5.66Z"></path>
      <path fill="#5e6175" d="M268.18,301.91h-11l-11.71,94,17.19,20.41,17.18-20.41Z"></path>
      <path fill="#f5f5f5" d="M416.72 308.58l8.1-4.91a16.65 16.65 0 0115.23-1l13.79 5.95h3l5.71-6.34a7.73 7.73 0 0111.67 10.14l-5.88 7a17 17 0 01-13 6.06H416.72zM104.46 304.45l-8.1-4.91a16.62 16.62 0 00-15.22-1l-13.79 5.95h-3l-5.71-6.34A7.73 7.73 0 0047 308.25l5.89 7a16.94 16.94 0 0013 6.07h38.58z"></path>
      <path fill="#5e6175" d="M455.31 328.47H413.72V306.89l9.55-5.78a19.66 19.66 0 0118-1.24l13.22 5.71h1l4.82-5.35a10.73 10.73 0 0116.2 14.08l-5.88 7A19.92 19.92 0 01455.31 328.47zm-35.59-6h35.59a13.94 13.94 0 0010.7-5l5.88-7a4.73 4.73 0 00-7.14-6.21l-6.61 7.33h-4.92l-14.36-6.2a13.79 13.79 0 00-12.48.86l-6.66 4zM107.46 324.34H65.88a19.9 19.9 0 01-15.3-7.14l-5.89-7A10.74 10.74 0 0160.9 296.1l4.81 5.35h1L80 295.74a19.85 19.85 0 0118 1.24l9.54 5.77zM52.92 298.56a4.74 4.74 0 00-3.63 7.77l5.89 7a13.94 13.94 0 0010.7 5h35.58v-12.2l-6.65-4a13.79 13.79 0 00-12.48-.86L68 307.45H63l-6.6-7.34A4.77 4.77 0 0052.92 298.56z"></path>
      <rect width="97.76" height="68.24" x="39.05" y="197.71" fill="#a9afc4"></rect>
      <path fill="#5e6175" d="M139.8,269H36.05V194.71H139.8Zm-97.75-6H133.8V200.71H42.05Z"></path>
      <path fill="#e1830e" d="M470.91,225.48c12.36-16.24.86-39.91-19.79-39.91a24.76,24.76,0,0,0-18.29,8.06,24.77,24.77,0,0,0-18.3-8.06c-20.65,0-32.14,23.68-19.78,39.91,40,46.54,38,44.25,38.08,44.25Z"></path>
      <path fill="#5e6175" d="M432.83 274.33l-40.46-47c-13.91-18.27-.86-44.73 22.16-44.73a27.88 27.88 0 0118.3 6.88 27.84 27.84 0 0140.35 38zm-35.74-50.74l35.74 41.54 35.74-41.54c10.83-14.33.59-35-17.45-35A21.64 21.64 0 00435 195.66l-2.21 2.4-2.21-2.4a21.64 21.64 0 00-16.09-7.09C396.49 188.57 386.26 209.27 397.09 223.59zM419.72 331.17H400V292.54h19.69zm-13.69-6h7.69V298.54H406zM121.28 331.17h-19.7V292.54h19.7zm-13.7-6h7.7V298.54h-7.7z"></path>
      <path fill="url(#b)" d="M302.2,254.9a59.51,59.51,0,0,1-79,0,44.07,44.07,0,0,1,10.57-1.29h58A42.15,42.15,0,0,1,302.2,254.9Z" style="mix-blend-mode:multiply"></path>
      <path fill="#5e6175" d="M329,420.24h-6V308.51l42.51,16.66h48.18V298.54H376.24L312.67,262.6a39.39,39.39,0,0,0-20.92-6h-58a41.41,41.41,0,0,0-20.94,5.69c-.2.12,3.49-1.83-68.92,36.25H107.46v26.63h48.21l44.43-16.58V420.24h-6v-103l-37.35,13.94H101.46V292.54H142.4l67.42-35.46a47.42,47.42,0,0,1,23.92-6.48h58a45.44,45.44,0,0,1,24.05,6.89l62,35.06h41.91v38.63H364.41L329,317.31Z"></path>
      <polygon fill="#dee1ec" points="36 197.71 36 206.78 87.93 233.36 139.85 207.75 139.85 197.71 36 197.71"></polygon>
      <path fill="#5e6175" d="M87.9,236.71,33,208.62V194.71H142.85v14.91ZM39,205,88,230l48.9-24.12v-5.17H39Z"></path>
      <rect width="15.41" height="15.41" x="80.22" y="224.83" fill="#e1830e" rx="2.01"></rect>
      <path fill="#5e6175" d="M93.62 243.24H82.23a5 5 0 01-5-5V226.84a5 5 0 015-5H93.62a5 5 0 015 5v11.38A5 5 0 0193.62 243.24zm-10.4-6h9.41v-9.41H83.22zM107.58 197.71h-6V186.46a4.21 4.21 0 00-4.2-4.21H78.47a4.21 4.21 0 00-4.2 4.21v11.25h-6V186.46a10.22 10.22 0 0110.2-10.21H97.38a10.21 10.21 0 0110.2 10.21z"></path>
      <path fill="#f5f5f5" d="M262.26,257.44A38.24,38.24,0,0,1,224,219.2V200a38.24,38.24,0,1,1,76.47,0V219.2A38.24,38.24,0,0,1,262.26,257.44Z"></path>
      <path fill="#5e6175" d="M262.26,260.44A41.28,41.28,0,0,1,221,219.2V200a41.24,41.24,0,1,1,82.47,0V219.2A41.29,41.29,0,0,1,262.26,260.44Zm0-95.66A35.27,35.27,0,0,0,227,200V219.2a35.24,35.24,0,1,0,70.47,0V200A35.28,35.28,0,0,0,262.26,164.78Z"></path>
      <path fill="#f5f5f5" d="M311.14,203.67v6.9a10.35,10.35,0,0,1-3.05,7.35c-3.17,3.19-4.55,5-7.66,5.92.15-2.37.1-1.92.1-30.58A10.4,10.4,0,0,1,311.14,203.67Z"></path>
      <path fill="#5e6175" d="M297.16,228c.49-7.63.37-1,.37-37.69h3.2a13.42,13.42,0,0,1,13.41,13.41v6.9a13.42,13.42,0,0,1-3.93,9.48C304.37,225.9,305.13,225.57,297.16,228Zm6.37-31.15v21.45L306,215.8a7.4,7.4,0,0,0,2.17-5.23v-6.9A7.44,7.44,0,0,0,303.53,196.8Z"></path>
      <path fill="#f5f5f5" d="M213.32,203.67v6.9a10.34,10.34,0,0,0,3,7.35c3.18,3.19,4.55,5,7.67,5.92-.16-2.37-.1-1.92-.1-30.58A10.4,10.4,0,0,0,213.32,203.67Z"></path>
      <path fill="#5e6175" d="M227.3,228c-8-2.39-7.24-2.07-13.06-7.91a13.41,13.41,0,0,1-3.92-9.47v-6.9a13.42,13.42,0,0,1,13.4-13.41h3.21C226.93,226.85,226.81,220.32,227.3,228Zm-6.37-31.15a7.44,7.44,0,0,0-4.61,6.87v6.9a7.39,7.39,0,0,0,2.15,5.22l2.46,2.46Z"></path>
      <path fill="#e1830e" d="M270.4,148.72a42.94,42.94,0,0,0-30.83,13.06v-4.7A19.62,19.62,0,0,0,220,176.7v20.22h3a24.75,24.75,0,0,0,16.48-6.17,30.79,30.79,0,0,1,10.91-6.44h1.58v12.61c12.16,0,20.15-9.43,22.51-12.61h.73a12.6,12.6,0,0,0,12.61,12.61h5.34a15.71,15.71,0,0,0,15.71-15.71V148.72Z"></path>
      <path fill="#5e6175" d="M293.08,199.92h-5.34a15.61,15.61,0,0,1-14.47-9.73c-4.25,4.27-11.59,9.73-21.38,9.73h-3V188.09a27.92,27.92,0,0,0-7.49,4.9,27.7,27.7,0,0,1-18.48,6.93h-6V176.7a22.65,22.65,0,0,1,22.62-22.62h3v1a45.57,45.57,0,0,1,27.83-9.39h41.39v35.49A18.7,18.7,0,0,1,293.08,199.92Zm-20.2-18.61h5.25v3a9.6,9.6,0,0,0,9.61,9.61h5.34a12.7,12.7,0,0,0,12.71-12.71V151.72H270.4a39.59,39.59,0,0,0-28.2,11.68L236.57,169v-8.68A16.66,16.66,0,0,0,223,176.7v17.22a21.73,21.73,0,0,0,14.46-5.41,33.71,33.71,0,0,1,11.87-7c.7-.26-.24-.18,5.61-.18v12.38c9.17-1.38,15.31-8.75,17.09-11.17Z"></path>
    </g>
  </g>
</svg>
